<svg width="242" height="103" viewBox="0 0 242 103" fill="none" xmlns="http://www.w3.org/2000/svg">
<path d="M8.568 79C8.008 79 7.532 78.804 7.14 78.412C6.748 78.02 6.552 77.544 6.552 76.984V22.3C6.552 21.684 6.748 21.18 7.14 20.788C7.532 20.396 8.008 20.2 8.568 20.2H31.08C35.448 20.2 39.256 20.9 42.504 22.3C45.752 23.644 48.272 25.716 50.064 28.516C51.856 31.26 52.752 34.704 52.752 38.848C52.752 43.048 51.856 46.52 50.064 49.264C48.272 51.952 45.752 53.968 42.504 55.312C39.256 56.656 35.448 57.328 31.08 57.328H18.564V76.984C18.564 77.544 18.368 78.02 17.976 78.412C17.64 78.804 17.164 79 16.548 79H8.568ZM18.396 48.004H30.66C33.908 48.004 36.4 47.248 38.136 45.736C39.872 44.168 40.74 41.872 40.74 38.848C40.74 36.048 39.928 33.808 38.304 32.128C36.68 30.392 34.132 29.524 30.66 29.524H18.396V48.004ZM81.1591 79.84C76.1751 79.84 71.8911 79.028 68.3071 77.404C64.7231 75.724 61.9231 73.176 59.9071 69.76C57.8911 66.288 56.7991 61.976 56.6311 56.824C56.5751 54.416 56.5471 52.036 56.5471 49.684C56.5471 47.332 56.5751 44.924 56.6311 42.46C56.7991 37.364 57.9191 33.108 59.9911 29.692C62.0631 26.276 64.8911 23.7 68.4751 21.964C72.1151 20.228 76.3431 19.36 81.1591 19.36C85.9751 19.36 90.2031 20.228 93.8431 21.964C97.4831 23.7 100.339 26.276 102.411 29.692C104.483 33.108 105.603 37.364 105.771 42.46C105.883 44.924 105.939 47.332 105.939 49.684C105.939 52.036 105.883 54.416 105.771 56.824C105.603 61.976 104.511 66.288 102.495 69.76C100.479 73.176 97.6511 75.724 94.0111 77.404C90.4271 79.028 86.1431 79.84 81.1591 79.84ZM81.1591 70.18C84.7991 70.18 87.7671 69.116 90.0631 66.988C92.3591 64.804 93.5911 61.276 93.7591 56.404C93.8711 53.94 93.9271 51.672 93.9271 49.6C93.9271 47.472 93.8711 45.204 93.7591 42.796C93.6471 39.548 93.0311 36.916 91.9111 34.9C90.8471 32.828 89.3911 31.344 87.5431 30.448C85.6951 29.496 83.5671 29.02 81.1591 29.02C78.8071 29.02 76.7071 29.496 74.8591 30.448C73.0111 31.344 71.5271 32.828 70.4071 34.9C69.3431 36.916 68.7551 39.548 68.6431 42.796C68.5871 45.204 68.5591 47.472 68.5591 49.6C68.5591 51.672 68.5871 53.94 68.6431 56.404C68.8111 61.276 70.0431 64.804 72.3391 66.988C74.6351 69.116 77.5751 70.18 81.1591 70.18ZM115.625 79C115.065 79 114.589 78.804 114.197 78.412C113.805 78.02 113.609 77.544 113.609 76.984V22.3C113.609 21.684 113.805 21.18 114.197 20.788C114.589 20.396 115.065 20.2 115.625 20.2H122.093C122.877 20.2 123.437 20.396 123.773 20.788C124.165 21.124 124.417 21.376 124.529 21.544L148.721 59.176V22.3C148.721 21.684 148.889 21.18 149.225 20.788C149.617 20.396 150.121 20.2 150.737 20.2H157.793C158.409 20.2 158.913 20.396 159.305 20.788C159.697 21.18 159.893 21.684 159.893 22.3V76.9C159.893 77.516 159.697 78.02 159.305 78.412C158.913 78.804 158.437 79 157.877 79H151.325C150.541 79 149.981 78.804 149.645 78.412C149.309 78.02 149.057 77.768 148.889 77.656L124.781 40.864V76.984C124.781 77.544 124.585 78.02 124.193 78.412C123.801 78.804 123.297 79 122.681 79H115.625ZM192.488 79.84C187.336 79.84 182.94 78.944 179.3 77.152C175.716 75.36 172.916 72.784 170.9 69.424C168.94 66.008 167.876 61.948 167.708 57.244C167.652 54.836 167.624 52.26 167.624 49.516C167.624 46.716 167.652 44.084 167.708 41.62C167.876 36.972 168.94 32.996 170.9 29.692C172.916 26.388 175.744 23.84 179.384 22.048C183.08 20.256 187.448 19.36 192.488 19.36C196.576 19.36 200.16 19.92 203.24 21.04C206.32 22.104 208.868 23.504 210.884 25.24C212.956 26.92 214.496 28.74 215.504 30.7C216.568 32.66 217.128 34.48 217.184 36.16C217.24 36.664 217.1 37.084 216.764 37.42C216.428 37.756 215.98 37.924 215.42 37.924H206.768C206.208 37.924 205.788 37.812 205.508 37.588C205.228 37.364 204.976 37.028 204.752 36.58C204.304 35.404 203.604 34.256 202.652 33.136C201.7 31.96 200.412 30.98 198.788 30.196C197.164 29.412 195.064 29.02 192.488 29.02C188.68 29.02 185.628 30.028 183.332 32.044C181.092 34.06 179.888 37.392 179.72 42.04C179.552 46.912 179.552 51.84 179.72 56.824C179.888 61.584 181.12 65 183.416 67.072C185.768 69.144 188.848 70.18 192.656 70.18C195.176 70.18 197.416 69.732 199.376 68.836C201.392 67.94 202.96 66.54 204.08 64.636C205.256 62.732 205.844 60.296 205.844 57.328V54.724H195.596C195.036 54.724 194.56 54.528 194.168 54.136C193.776 53.744 193.58 53.24 193.58 52.624V48.172C193.58 47.556 193.776 47.052 194.168 46.66C194.56 46.268 195.036 46.072 195.596 46.072H215.672C216.288 46.072 216.764 46.268 217.1 46.66C217.492 47.052 217.688 47.556 217.688 48.172V56.992C217.688 61.696 216.652 65.756 214.58 69.172C212.564 72.588 209.652 75.22 205.844 77.068C202.092 78.916 197.64 79.84 192.488 79.84Z" fill="white"/>
<rect x="214" y="74" width="28" height="29" rx="14" fill="white"/>
</svg>
